<?xml version="1.0" encoding="utf-8"?>
<!-- Generator: Adobe Illustrator 25.4.1, SVG Export Plug-In . SVG Version: 6.00 Build 0)  -->
<svg version="1.1" id="Logo_Principal" xmlns="http://www.w3.org/2000/svg" xmlns:xlink="http://www.w3.org/1999/xlink" x="0px"
	 y="0px" viewBox="0 0 500 500" style="enable-background:new 0 0 500 500;" xml:space="preserve">
<style type="text/css">
	.st0{fill:none;}
	.st1{fill:#534588;}
	.st2{fill:#FFCD00;}
</style>
<rect class="st0" width="500" height="500"/>
<g>
	<g>
		<g>
			<path class="st1" d="M59.2,372.4h13.2c18.7,0,29.8,10.5,29.8,28c0,18.2-11.4,28-29.8,28H59.2V372.4z M73.3,420.6
				c12,0,19.8-6.9,19.8-20.2c0-12.9-7.8-20.2-19.8-20.2h-5.2v40.4H73.3z"/>
			<path class="st1" d="M127.8,385.6c12.6,0,20.1,8.7,20.1,21.8c0,0.7,0,1.4-0.1,2.2h-31.4c0.2,7.4,5.5,12.2,13,12.2
				c6.3,0,9.9-3.5,11.5-5.8l5.8,4.3c-2,3.4-7.5,9.1-17.4,9.1c-13,0-21.7-9.1-21.7-21.8C107.4,394.7,116.3,385.6,127.8,385.6z
				 M139,403.6c-0.3-6.9-5.1-10.7-11.1-10.7c-6,0-10.6,4.2-11.2,10.7H139z"/>
			<path class="st1" d="M172.7,385.6c12.6,0,20.1,8.7,20.1,21.8c0,0.7,0,1.4-0.1,2.2h-31.4c0.2,7.4,5.5,12.2,13,12.2
				c6.3,0,9.9-3.5,11.5-5.8l5.8,4.3c-2,3.4-7.5,9.1-17.4,9.1c-13,0-21.7-9.1-21.7-21.8C152.4,394.7,161.3,385.6,172.7,385.6z
				 M183.9,403.6c-0.3-6.9-5.1-10.7-11.1-10.7c-6,0-10.6,4.2-11.2,10.7H183.9z"/>
			<path class="st1" d="M199.8,386.6h8.2v5.5c1.1-1.5,5.4-6.6,13.4-6.6c11.9,0,20.4,9.1,20.4,21.8c0,13-7.9,22-19.8,22
				c-7.9,0-12.4-4.8-13.5-6.6v20.5h-8.7V386.6z M220.7,421.7c7.3,0,12.4-5.8,12.4-14.2c0-8.6-5.4-14.1-12.5-14.1
				c-7.7,0-12.4,6.4-12.4,14.1C208.2,416.5,213.8,421.7,220.7,421.7z"/>
			<path class="st1" d="M270.2,372.4h27.6v8h-18.7v16.2h16.4v7.9h-16.4v23.8h-8.9V372.4z"/>
			<path class="st1" d="M323,385.6c12.6,0,20.1,8.7,20.1,21.8c0,0.7,0,1.4-0.1,2.2h-31.4c0.2,7.4,5.5,12.2,13,12.2
				c6.3,0,9.9-3.5,11.5-5.8l5.8,4.3c-2,3.4-7.5,9.1-17.4,9.1c-13,0-21.7-9.1-21.7-21.8C302.7,394.7,311.6,385.6,323,385.6z
				 M334.2,403.6c-0.3-6.9-5.1-10.7-11.1-10.7c-6,0-10.6,4.2-11.2,10.7H334.2z"/>
			<path class="st1" d="M368,385.6c12.6,0,20.1,8.7,20.1,21.8c0,0.7,0,1.4-0.1,2.2h-31.4c0.2,7.4,5.5,12.2,13,12.2
				c6.3,0,9.9-3.5,11.5-5.8l5.8,4.3c-2,3.4-7.5,9.1-17.4,9.1c-13,0-21.7-9.1-21.7-21.8C347.7,394.7,356.6,385.6,368,385.6z
				 M379.2,403.6c-0.3-6.9-5.1-10.7-11.1-10.7c-6,0-10.6,4.2-11.2,10.7H379.2z"/>
			<path class="st1" d="M395.1,370.5h8.7v57.8h-8.7V370.5z"/>
			<path class="st1" d="M416.1,416.8c1.9,2.8,4.8,5.4,10,5.4c3.7,0,6.4-1.8,6.4-5.2c0-8-20.3-5.1-20.3-19.6
				c0-7.4,6.2-11.8,14.3-11.8c7.8,0,12,4.6,13.6,7.8l-6,4c-1.2-1.9-3.4-4.6-8.1-4.6c-3.2,0-5.6,1.7-5.6,4.6c0,8,20.4,4.6,20.4,19.4
				c0,7.8-6.6,12.8-15.1,12.8c-8.5,0-13-4.6-15-8.3L416.1,416.8z"/>
		</g>
		<g>
			<path class="st1" d="M233.2,332.3c-21.9,0-43.1-5.1-62.8-15.3c-17.1-8.8-31.8-20.7-43.9-35.5c-1.8-2.3-2.2-5.4-0.8-8
				c1.3-2.6,4.1-4.2,7-4c48.8,3,94.8-23.2,117.2-66.7s16.8-96.2-14.1-134.1c-1.8-2.3-2.2-5.4-0.8-8c1.3-2.6,4.1-4.1,7-4
				c19.1,1.2,37.4,6.2,54.5,15l0,0c67.7,34.7,94.5,118,59.7,185.7c-16.8,32.8-45.4,57-80.5,68.3
				C261.8,330.1,247.5,332.3,233.2,332.3C233.2,332.3,233.2,332.3,233.2,332.3z M133.1,277.3c11.3,13.7,25,24.7,40.9,32.8
				c18.6,9.6,38.6,14.4,59.3,14.4c0,0,0,0,0,0c13.5,0,27-2.1,40-6.3c33.1-10.6,60.1-33.5,75.9-64.5c32.8-63.8,7.5-142.5-56.4-175.2
				l0,0C277,70.4,260,65.7,242.3,64.5c32.4,40.3,38.1,95.9,14.5,141.9C233.2,252.3,184.7,280.1,133.1,277.3z M132.2,277.2"/>
			<path class="st1" d="M258,73.7c15.9,4.4,30.9,12.2,44.1,22.4c13.2,10.2,24.7,22.8,34.1,36.9c1.3,1.9,0.8,4.6-1.2,5.9
				c-1.9,1.3-4.6,0.8-5.9-1.2c-0.1-0.1-0.1-0.2-0.2-0.3c-7.7-14.1-17.6-27.1-29.6-38C287.5,88.4,273.4,79.5,258,73.7z"/>
			<path class="st1" d="M270.4,307c-15.9,4.3-32.8,5.3-49.4,3.2c-16.6-2-32.9-7.1-48.1-14.4c-2.1-1-3-3.5-2-5.6c1-2.1,3.5-3,5.6-2
				c0.1,0.1,0.2,0.1,0.3,0.2c13.8,8.2,29,14.3,44.8,17.7C237.5,309.4,254.1,309.9,270.4,307z"/>
			
				<ellipse transform="matrix(0.5343 -0.8453 0.8453 0.5343 -67.6754 386.6359)" class="st1" cx="317.1" cy="254.7" rx="17.9" ry="11.3"/>
			
				<ellipse transform="matrix(0.5343 -0.8453 0.8453 0.5343 -102.5221 381.8276)" class="st1" cx="295.3" cy="284" rx="9.2" ry="5.8"/>
		</g>
	</g>
	<path class="st2" d="M222.9,162.5c-20.9,0-38-17-38-38c0-1.7-1.4-3-3-3c-1.7,0-3,1.4-3,3c0,20.9-17,38-38,38c-1.7,0-3,1.4-3,3
		s1.4,3,3,3c20.9,0,38,17,38,38c0,1.7,1.4,3,3,3c1.7,0,3-1.4,3-3c0-20.9,17-38,38-38c1.7,0,3-1.4,3-3S224.6,162.5,222.9,162.5z
		 M181.9,190.6c-4.5-11.4-13.6-20.5-25-25c11.4-4.5,20.5-13.6,25-25c4.5,11.4,13.6,20.5,25,25C195.5,170,186.4,179.1,181.9,190.6z"
		/>
</g>
</svg>
